<?xml version="1.0" standalone="no"?>
<!DOCTYPE svg PUBLIC "-//W3C//DTD SVG 20010904//EN"
 "http://www.w3.org/TR/2001/REC-SVG-20010904/DTD/svg10.dtd">
<svg version="1.0" xmlns="http://www.w3.org/2000/svg"
 width="48.000000pt" height="46.000000pt" viewBox="0 0 48.000000 46.000000"
 preserveAspectRatio="xMidYMid meet">

<g transform="translate(0.000000,46.000000) scale(0.100000,-0.100000)"
fill="#000000" stroke="none">
<path d="M90 454 c0 -4 23 -46 50 -95 28 -49 50 -91 50 -94 0 -3 -19 -5 -43
-5 -33 0 -49 6 -67 25 -26 27 -70 34 -70 11 0 -8 4 -18 10 -21 15 -9 12 -25
-5 -25 -8 0 -15 -7 -15 -15 0 -8 7 -15 16 -15 16 0 16 -11 -1 -52 -12 -31 38
-22 70 12 22 23 38 30 67 30 21 0 38 -2 38 -4 0 -2 -18 -43 -40 -91 -22 -48
-40 -93 -40 -101 0 -35 42 -6 133 91 l98 104 61 3 c44 2 64 8 71 20 20 31 -8
48 -80 48 l-65 0 -95 90 c-65 62 -103 90 -119 90 -13 0 -24 -3 -24 -6z"/>
</g>
</svg>
